<svg xmlns="http://www.w3.org/2000/svg" width="34.837" height="38.007" viewBox="0 0 34.837 38.007"><defs><style>.a{fill:#8abb2a;}</style></defs><g transform="translate(-21.188)"><g transform="translate(21.188)"><g transform="translate(0)"><path class="a" d="M32.852,11.088V1.055A1.054,1.054,0,0,0,31.8,0H26.47a1.054,1.054,0,0,0-1.055,1.055V11.088a7.93,7.93,0,0,0-4.227,7.018V36.952a1.054,1.054,0,0,0,1.055,1.055H36.024a1.054,1.054,0,0,0,1.055-1.055V18.106A7.93,7.93,0,0,0,32.852,11.088ZM23.3,18.106a5.825,5.825,0,0,1,3.576-5.379,1.055,1.055,0,0,0,.643-.973V2.11h3.217v9.644a1.055,1.055,0,0,0,.643.973,5.825,5.825,0,0,1,3.576,5.379v.022H23.3ZM34.969,35.9H23.3v-2.88H34.969Zm0-5H23.3V20.245H34.969Z" transform="translate(-21.188)"/></g></g><g transform="translate(40.22 15.831)"><g transform="translate(0)"><path class="a" d="M287.633,221.977c2.432-2.985,5.185-6.374,2.851-9.906a1.042,1.042,0,0,0-.883-.471h-12.27a1.07,1.07,0,0,0-.883.471c-2.334,3.531.419,6.921,2.851,9.906,1.324,1.631,2.693,3.314,3.112,4.848v4.833h-1.4a1.055,1.055,0,1,0,0,2.11h4.908a1.055,1.055,0,1,0,0-2.11h-1.4v-4.833C284.94,225.3,286.309,223.608,287.633,221.977Zm-4.167,2.087a31.175,31.175,0,0,0-2.529-3.419c-2.417-2.97-3.876-5-2.993-6.936h11.043c.883,1.938-.569,3.958-2.993,6.936A31.175,31.175,0,0,0,283.466,224.065Z" transform="translate(-275.564 -211.6)"/></g></g></g></svg>