<svg xmlns="http://www.w3.org/2000/svg" xmlns:xlink="http://www.w3.org/1999/xlink" width="178.119" height="178.119" viewBox="0 0 178.119 178.119">
  <defs>
    <clipPath id="clip-path">
      <circle id="Ellipse_1" data-name="Ellipse 1" cx="65.196" cy="65.196" r="65.196" fill="#fff" stroke="#68a364" stroke-width="1"/>
    </clipPath>
  </defs>
  <g id="Group_32" data-name="Group 32" transform="translate(384.344 548.115) rotate(150)" opacity="0.322">
    <g id="Mask_Group_2" data-name="Mask Group 2" transform="translate(-39 480)" clip-path="url(#clip-path)">
      <g id="Group_28" data-name="Group 28" transform="translate(-11.725 -76.743)">
        <path id="Path_35" data-name="Path 35" d="M998.658,296S983.18,374.6,837,378.428" transform="translate(-837 -296)" fill="none" stroke="#68a364" stroke-width="1"/>
        <path id="Path_35-2" data-name="Path 35" d="M998.658,296S983.18,374.6,837,378.428" transform="translate(-837 -290.315)" fill="none" stroke="#68a364" stroke-width="1"/>
        <path id="Path_35-3" data-name="Path 35" d="M998.658,296S983.18,374.6,837,378.428" transform="translate(-837 -284.631)" fill="none" stroke="#68a364" stroke-width="1"/>
        <path id="Path_35-4" data-name="Path 35" d="M998.658,296S983.18,374.6,837,378.428" transform="translate(-837 -278.946)" fill="none" stroke="#68a364" stroke-width="1"/>
        <path id="Path_35-5" data-name="Path 35" d="M998.658,296S983.18,374.6,837,378.428" transform="translate(-837 -273.261)" fill="none" stroke="#68a364" stroke-width="1"/>
        <path id="Path_35-6" data-name="Path 35" d="M998.658,296S983.18,374.6,837,378.428" transform="translate(-837 -267.577)" fill="none" stroke="#68a364" stroke-width="1"/>
        <path id="Path_35-7" data-name="Path 35" d="M998.658,296S983.18,374.6,837,378.428" transform="translate(-837 -261.892)" fill="none" stroke="#68a364" stroke-width="1"/>
        <path id="Path_35-8" data-name="Path 35" d="M998.658,296S983.18,374.6,837,378.428" transform="translate(-837 -256.207)" fill="none" stroke="#68a364" stroke-width="1"/>
        <path id="Path_35-9" data-name="Path 35" d="M998.658,296S983.18,374.6,837,378.428" transform="translate(-837 -250.523)" fill="none" stroke="#68a364" stroke-width="1"/>
        <path id="Path_35-10" data-name="Path 35" d="M998.658,296S983.18,374.6,837,378.428" transform="translate(-837 -244.838)" fill="none" stroke="#68a364" stroke-width="1"/>
        <path id="Path_35-11" data-name="Path 35" d="M998.658,296S983.18,374.6,837,378.428" transform="translate(-837 -239.153)" fill="none" stroke="#68a364" stroke-width="1"/>
        <path id="Path_35-12" data-name="Path 35" d="M998.658,296S983.18,374.6,837,378.428" transform="translate(-837 -233.469)" fill="none" stroke="#68a364" stroke-width="1"/>
        <path id="Path_35-13" data-name="Path 35" d="M998.658,296S983.18,374.6,837,378.428" transform="translate(-837 -227.784)" fill="none" stroke="#68a364" stroke-width="1"/>
        <path id="Path_35-14" data-name="Path 35" d="M998.658,296S983.18,374.6,837,378.428" transform="translate(-837 -222.099)" fill="none" stroke="#68a364" stroke-width="1"/>
        <path id="Path_35-15" data-name="Path 35" d="M998.658,296S983.18,374.6,837,378.428" transform="translate(-837 -216.415)" fill="none" stroke="#68a364" stroke-width="1"/>
        <path id="Path_35-16" data-name="Path 35" d="M998.658,296S983.18,374.6,837,378.428" transform="translate(-837 -210.73)" fill="none" stroke="#68a364" stroke-width="1"/>
        <path id="Path_35-17" data-name="Path 35" d="M998.658,296S983.18,374.6,837,378.428" transform="translate(-837 -205.045)" fill="none" stroke="#68a364" stroke-width="1"/>
        <path id="Path_35-18" data-name="Path 35" d="M998.658,296S983.18,374.6,837,378.428" transform="translate(-837 -199.36)" fill="none" stroke="#68a364" stroke-width="1"/>
        <path id="Path_35-19" data-name="Path 35" d="M998.658,296S983.18,374.6,837,378.428" transform="translate(-837 -193.676)" fill="none" stroke="#68a364" stroke-width="1"/>
        <path id="Path_35-20" data-name="Path 35" d="M998.658,296S983.18,374.6,837,378.428" transform="translate(-837 -187.991)" fill="none" stroke="#68a364" stroke-width="1"/>
        <path id="Path_35-21" data-name="Path 35" d="M998.658,296S983.18,374.6,837,378.428" transform="translate(-837 -182.306)" fill="none" stroke="#68a364" stroke-width="1"/>
        <path id="Path_35-22" data-name="Path 35" d="M998.658,296S983.18,374.6,837,378.428" transform="translate(-837 -176.622)" fill="none" stroke="#68a364" stroke-width="1"/>
        <path id="Path_35-23" data-name="Path 35" d="M998.658,296S983.18,374.6,837,378.428" transform="translate(-837 -170.937)" fill="none" stroke="#68a364" stroke-width="1"/>
        <path id="Path_35-24" data-name="Path 35" d="M998.658,296S983.18,374.6,837,378.428" transform="translate(-837 -165.252)" fill="none" stroke="#68a364" stroke-width="1"/>
        <path id="Path_35-25" data-name="Path 35" d="M998.658,296S983.18,374.6,837,378.428" transform="translate(-837 -159.568)" fill="none" stroke="#68a364" stroke-width="1"/>
        <path id="Path_35-26" data-name="Path 35" d="M998.658,296S983.18,374.6,837,378.428" transform="translate(-837 -153.883)" fill="none" stroke="#68a364" stroke-width="1"/>
        <path id="Path_35-27" data-name="Path 35" d="M998.658,296S983.18,374.6,837,378.428" transform="translate(-837 -148.198)" fill="none" stroke="#68a364" stroke-width="1"/>
        <path id="Path_35-28" data-name="Path 35" d="M998.658,296S983.18,374.6,837,378.428" transform="translate(-837 -142.514)" fill="none" stroke="#68a364" stroke-width="1"/>
        <path id="Path_35-29" data-name="Path 35" d="M998.658,296S983.18,374.6,837,378.428" transform="translate(-837 -136.829)" fill="none" stroke="#68a364" stroke-width="1"/>
        <path id="Path_35-30" data-name="Path 35" d="M998.658,296S983.18,374.6,837,378.428" transform="translate(-837 -131.144)" fill="none" stroke="#68a364" stroke-width="1"/>
        <path id="Path_35-31" data-name="Path 35" d="M998.658,296S983.18,374.6,837,378.428" transform="translate(-837 -125.46)" fill="none" stroke="#68a364" stroke-width="1"/>
        <path id="Path_35-32" data-name="Path 35" d="M998.658,296S983.18,374.6,837,378.428" transform="translate(-837 -119.775)" fill="none" stroke="#68a364" stroke-width="1"/>
        <path id="Path_35-33" data-name="Path 35" d="M998.658,296S983.18,374.6,837,378.428" transform="translate(-837 -114.09)" fill="none" stroke="#68a364" stroke-width="1"/>
        <path id="Path_35-34" data-name="Path 35" d="M998.658,296S983.18,374.6,837,378.428" transform="translate(-837 -108.406)" fill="none" stroke="#68a364" stroke-width="1"/>
        <path id="Path_35-35" data-name="Path 35" d="M998.658,296S983.18,374.6,837,378.428" transform="translate(-837 -102.721)" fill="none" stroke="#68a364" stroke-width="1"/>
        <path id="Path_35-36" data-name="Path 35" d="M998.658,296S983.18,374.6,837,378.428" transform="translate(-837 -97.036)" fill="none" stroke="#68a364" stroke-width="1"/>
        <path id="Path_35-37" data-name="Path 35" d="M998.658,296S983.18,374.6,837,378.428" transform="translate(-837 -91.352)" fill="none" stroke="#68a364" stroke-width="1"/>
      </g>
    </g>
  </g>
</svg>
