<svg xmlns="http://www.w3.org/2000/svg" width="47.694" height="35" viewBox="0 0 47.694 35"><defs><style>.a{fill:#8abb2a;}</style></defs><g transform="translate(0 -84.342)"><g transform="translate(0 84.494)"><g transform="translate(0 0)"><rect class="a" width="3.159" height="34.225" transform="translate(0 0.334)"/><rect class="a" width="2.106" height="25.274" transform="translate(4.739 0.334)"/><rect class="a" width="2.106" height="25.274" transform="translate(10.531 0.334)"/><rect class="a" width="3.159" height="25.274" transform="translate(14.217 0.334)"/><rect class="a" width="1.58" height="25.274" transform="translate(7.898 0.334)"/><rect class="a" width="1.58" height="25.274" transform="translate(18.429 0.334)"/><path class="a" d="M336.535,85H333.2v25.274h6.318V85h-2.984Z" transform="translate(-307.399 -84.666)"/><rect class="a" width="2.633" height="25.274" transform="translate(21.062 0.334)"/><rect class="a" width="3.159" height="25.274" transform="translate(40.544 0.334)"/><path class="a" d="M444.808,85H442v25.274h4.739V85h-1.931Z" transform="translate(-407.775 -84.666)"/><rect class="a" width="3" height="35" transform="translate(44.694 -0.152)"/></g><g transform="translate(5.088 29.049)"><path class="a" d="M69.3,458.529c0,1.8-.669,2.8-1.843,2.8-1.036,0-1.737-.97-1.753-2.724,0-1.778.767-2.756,1.843-2.756C68.668,455.845,69.3,456.841,69.3,458.529Zm-2.879.081c0,1.378.424,2.161,1.076,2.161.734,0,1.085-.856,1.085-2.21,0-1.3-.334-2.161-1.076-2.161C66.883,456.4,66.426,457.166,66.426,458.61Z" transform="translate(-65.708 -455.845)"/><path class="a" d="M129.046,457.663h-.016l-.921.5-.139-.546,1.158-.62h.612v5.3h-.693Z" transform="translate(-123.148 -456.904)"/><path class="a" d="M176.868,461.228v-.44l.562-.547c1.354-1.289,1.965-1.973,1.973-2.773a.946.946,0,0,0-1.052-1.036,1.8,1.8,0,0,0-1.126.449l-.229-.505a2.326,2.326,0,0,1,1.5-.538,1.491,1.491,0,0,1,1.623,1.541c0,.978-.71,1.77-1.827,2.846l-.424.392v.016h2.381v.6Z" transform="translate(-168.261 -455.838)"/><path class="a" d="M231.845,460.417a2.4,2.4,0,0,0,1.174.334c.922,0,1.207-.587,1.2-1.027-.008-.742-.677-1.06-1.371-1.06h-.4v-.538h.4c.522,0,1.183-.27,1.183-.9,0-.424-.269-.8-.93-.8a1.946,1.946,0,0,0-1.06.351l-.187-.522a2.516,2.516,0,0,1,1.386-.408c1.044,0,1.517.62,1.517,1.264a1.317,1.317,0,0,1-.979,1.248v.016a1.381,1.381,0,0,1,1.183,1.362c0,.848-.661,1.59-1.933,1.59a2.692,2.692,0,0,1-1.378-.359Z" transform="translate(-218.8 -455.85)"/><path class="a" d="M286.376,462.289v-1.443h-2.463v-.473l2.365-3.385h.775v3.3h.742v.562h-.742v1.443h-.677Zm0-2.006v-1.77q0-.416.025-.832h-.025c-.163.31-.294.538-.44.783l-1.3,1.8v.016Z" transform="translate(-267.017 -456.899)"/><path class="a" d="M345.046,457.606h-2.022l-.2,1.362a2.82,2.82,0,0,1,.432-.033,2.243,2.243,0,0,1,1.142.285,1.51,1.51,0,0,1,.758,1.362,1.839,1.839,0,0,1-1.973,1.81,2.6,2.6,0,0,1-1.321-.326l.18-.547a2.372,2.372,0,0,0,1.133.294,1.17,1.17,0,0,0,1.256-1.15c-.008-.685-.465-1.174-1.525-1.174a5.542,5.542,0,0,0-.734.057l.342-2.545h2.536v.6h0Z" transform="translate(-320.474 -456.913)"/><path class="a" d="M399.236,456.539a2.57,2.57,0,0,0-.538.033,2.153,2.153,0,0,0-1.843,1.884h.024a1.616,1.616,0,0,1,2.879,1.1A1.772,1.772,0,0,1,398,461.423c-1.134,0-1.876-.88-1.876-2.259a3.332,3.332,0,0,1,.9-2.389,2.885,2.885,0,0,1,1.7-.783,3.426,3.426,0,0,1,.521-.041v.587h0Zm-.2,3.058a1.077,1.077,0,0,0-1.093-1.215,1.18,1.18,0,0,0-1.027.652.6.6,0,0,0-.082.318c.016.873.416,1.517,1.166,1.517C398.617,460.869,399.033,460.355,399.033,459.6Z" transform="translate(-370.536 -455.943)"/><path class="a" d="M456.992,456.993v.473l-2.308,4.828h-.742l2.3-4.689v-.016h-2.593v-.6Z" transform="translate(-423.61 -456.903)"/><path class="a" d="M506.654,459.883a1.514,1.514,0,0,1,1.052-1.418l-.008-.025a1.313,1.313,0,0,1-.84-1.191,1.485,1.485,0,0,1,1.639-1.411,1.369,1.369,0,0,1,1.541,1.3,1.346,1.346,0,0,1-.873,1.239v.025a1.469,1.469,0,0,1,1.068,1.37,1.633,1.633,0,0,1-1.8,1.541C507.322,461.318,506.654,460.657,506.654,459.883Zm2.854-.033c0-.644-.449-.955-1.166-1.158a1.152,1.152,0,0,0-.955,1.093.981.981,0,0,0,1.06,1.011A.959.959,0,0,0,509.508,459.85Zm-1.973-2.651c0,.53.4.816,1.011.979a1.045,1.045,0,0,0,.807-.962.824.824,0,0,0-.9-.865A.843.843,0,0,0,507.535,457.2Z" transform="translate(-472.51 -455.838)"/></g></g></g></svg>