<svg xmlns="http://www.w3.org/2000/svg" width="39.998" height="30.951" viewBox="0 0 39.998 30.951"><defs><style>.a{fill:#8abb2a;}</style></defs><g transform="translate(0 -57.901)"><path class="a" d="M40,74a4.97,4.97,0,0,0-3.242-4.654V57.9H3.242V69.35A4.97,4.97,0,0,0,0,74V83.56H1.112v5.293H38.886V83.56H40ZM5.586,60.245H34.412v8.8H32.068V62.588H7.93v6.454H5.586v-8.8Zm13.241,8.8H10.273V64.932h8.554Zm2.344-4.111h8.554v4.111H21.171ZM2.344,74a2.621,2.621,0,0,1,2.618-2.618H35.036A2.621,2.621,0,0,1,37.655,74v7.212H2.344Zm34.2,12.5H3.456V83.56H36.542v2.949Z" transform="translate(0 0)"/></g></svg>