<svg xmlns="http://www.w3.org/2000/svg" width="33.998" height="33.998" viewBox="0 0 33.998 33.998"><defs><style>.a{fill:#8abb2a;}</style></defs><path class="a" d="M47.078,26.406a1.328,1.328,0,1,0-1.328-1.328A1.328,1.328,0,0,0,47.078,26.406Z" transform="translate(-21.447 -11.134)"/><path class="a" d="M28.686,2.656H26.959V1.328a1.328,1.328,0,1,0-2.656,0V2.656H18.261V1.328a1.328,1.328,0,0,0-2.656,0V2.656H9.628V1.328a1.328,1.328,0,1,0-2.656,0V2.656H5.312A5.318,5.318,0,0,0,0,7.968V28.686A5.318,5.318,0,0,0,5.312,34h10.16a1.328,1.328,0,0,0,0-2.656H5.312a2.659,2.659,0,0,1-2.656-2.656V7.968A2.659,2.659,0,0,1,5.312,5.312h1.66V6.64a1.328,1.328,0,1,0,2.656,0V5.312H15.6V6.64a1.328,1.328,0,0,0,2.656,0V5.312H24.3V6.64a1.328,1.328,0,1,0,2.656,0V5.312h1.726a2.659,2.659,0,0,1,2.656,2.656v7.57a1.328,1.328,0,0,0,2.656,0V7.968A5.318,5.318,0,0,0,28.686,2.656Z"/><path class="a" d="M41.785,33.75a8.035,8.035,0,1,0,8.035,8.035A8.044,8.044,0,0,0,41.785,33.75Zm0,13.413a5.379,5.379,0,1,1,5.379-5.379A5.385,5.385,0,0,1,41.785,47.163Z" transform="translate(-15.821 -15.821)"/><path class="a" d="M49.629,43.972h-.6V42.578a1.328,1.328,0,0,0-2.656,0V45.3A1.328,1.328,0,0,0,47.7,46.629h1.926a1.328,1.328,0,0,0,0-2.656Z" transform="translate(-21.74 -19.337)"/><path class="a" d="M36.2,26.406a1.328,1.328,0,1,0-1.328-1.328A1.328,1.328,0,0,0,36.2,26.406Z" transform="translate(-16.349 -11.134)"/><path class="a" d="M25.328,37.281A1.328,1.328,0,1,0,24,35.953,1.328,1.328,0,0,0,25.328,37.281Z" transform="translate(-11.251 -16.232)"/><path class="a" d="M14.453,26.406a1.328,1.328,0,1,0-1.328-1.328A1.328,1.328,0,0,0,14.453,26.406Z" transform="translate(-6.153 -11.134)"/><path class="a" d="M14.453,37.281a1.328,1.328,0,1,0-1.328-1.328A1.328,1.328,0,0,0,14.453,37.281Z" transform="translate(-6.153 -16.232)"/><path class="a" d="M14.453,48.156a1.328,1.328,0,1,0-1.328-1.328A1.328,1.328,0,0,0,14.453,48.156Z" transform="translate(-6.153 -21.33)"/><path class="a" d="M25.328,48.156A1.328,1.328,0,1,0,24,46.828,1.328,1.328,0,0,0,25.328,48.156Z" transform="translate(-11.251 -21.33)"/><path class="a" d="M25.328,26.406A1.328,1.328,0,1,0,24,25.078,1.328,1.328,0,0,0,25.328,26.406Z" transform="translate(-11.251 -11.134)"/></svg>