<svg xmlns="http://www.w3.org/2000/svg" width="54" height="43.319" viewBox="0 0 54 43.319"><defs><style>.a{fill:#004e9f;}.b{fill:#e3000d;}</style></defs><path class="a" d="M155.217,635.993c-.7,0-1.211.353-1.211,1.028a1.039,1.039,0,0,0,1.111,1.074,1.543,1.543,0,0,0,1.167-.6v-.9c0-.3-.389-.6-1.067-.6m15.131-.125a1.967,1.967,0,0,0,2.09,2.044,2.153,2.153,0,0,0,1.6-.7.5.5,0,0,1,.2.45c0,.59-.712,1.406-2.368,1.406A3.02,3.02,0,0,1,168.846,636a3.059,3.059,0,0,1,3.114-3.281,2.315,2.315,0,0,1,2.467,2.3,1.733,1.733,0,0,1-.2.843Zm2.357-.766c.267,0,.278-.156.278-.365a1.221,1.221,0,0,0-1.246-1.2c-.967,0-1.345.811-1.378,1.567Zm15.686.654c0,1.449.2,2.188,1.136,2.188,1.021,0,1.3-.912,1.3-1.74v-1.581c0-.543-.257-.754-.846-.69-.244-.61.566-1,1.024-1.088a2.739,2.739,0,0,1,.4-.044c.644,0,.891.4.891,1,0,.22-.022.623-.022,2.286,0,.7-.011,1.075-.011,1.191,0,.548.254.827.841.763.241.612-.565.9-1.024.987a2.762,2.762,0,0,1-.375.043c-.611,0-.735-.4-.858-.965a3.566,3.566,0,0,1-.332.354,2.188,2.188,0,0,1-1.513.6,1.975,1.975,0,0,1-1.535-.654c-.533-.633-.533-1.448-.533-2.639v-1.144c0-.543-.256-.754-.845-.69-.245-.61.568-1,1.023-1.088a2.76,2.76,0,0,1,.4-.044c.644,0,.889.4.889,1l-.011,1.953Zm-2.812.124a3,3,0,0,0-3.1-3.158,3.11,3.11,0,0,0-3.146,3.158,3.125,3.125,0,1,0,6.248,0m-27.9,1.656c0,.48.311.632.856.708a.845.845,0,0,1-.878.816,1.14,1.14,0,0,1-1.212-.728,2.852,2.852,0,0,1-1.824.75,2.007,2.007,0,0,1-2.157-1.952c0-1.19,1.034-1.9,2.49-1.9a3.174,3.174,0,0,1,1.334.265v-.8c0-.714-.312-1.167-1.122-1.167a2.7,2.7,0,0,0-.823.154,1.25,1.25,0,0,1,.056.345.735.735,0,1,1-1.468.034c0-.778.979-1.345,2.335-1.345a2.494,2.494,0,0,1,2.079.7,3.042,3.042,0,0,1,.333,1.858v2.257Zm26.315-1.565c0,1.444-.623,2.23-1.5,2.23-.778,0-1.534-.785-1.534-2.5,0-1.335.556-2.168,1.467-2.168s1.568.924,1.568,2.437m-21.913-2.193a.717.717,0,0,0,.733.645.8.8,0,0,0,.767-.835.877.877,0,0,0-.934-.878,1.754,1.754,0,0,0-1.423,1l-.022.011c-.1-.532-.356-.934-.89-.934a1.382,1.382,0,0,0-.4.067c-.445.133-1.1.477-.856,1.088.623-.12.845.09.845.633v2.586c0,.513-.066.728-.245.879a1.114,1.114,0,0,1-.456.2c-.256.557.245.73,1.479.73s1.657-.173,1.4-.73a1.592,1.592,0,0,1-.589-.2c-.178-.151-.256-.366-.256-.879V635.6c0-1.39.511-1.756.844-1.823m15.3-.9h1.59a.573.573,0,0,1-.422.856,3.354,3.354,0,0,1-.345.012c-.289,0-.578-.023-.778-.023v3.44c0,.513.089.728.267.879a1.914,1.914,0,0,0,.668.2c.256.557-.345.73-1.579.73s-1.745-.173-1.49-.73a1.124,1.124,0,0,0,.456-.2c.178-.151.244-.366.244-.879V633.7l-.934-.033c-.189-.454.066-.777.444-.777h.468v-.445a3.017,3.017,0,0,1,.389-1.735,2.055,2.055,0,0,1,1.856-.9c1.168,0,2.112.545,2.112,1.367a.76.76,0,0,1-.756.789.746.746,0,0,1-.733-.722.775.775,0,0,1,.155-.456.928.928,0,0,0-.678-.234c-.767,0-.934.567-.934,1.279Zm-10.239.9a.717.717,0,0,0,.734.645.8.8,0,0,0,.767-.835.877.877,0,0,0-.934-.878,1.753,1.753,0,0,0-1.422,1l-.023.011c-.1-.532-.356-.934-.889-.934a1.384,1.384,0,0,0-.4.067c-.445.133-1.1.477-.856,1.088.623-.12.844.09.844.633v2.586c0,.513-.066.728-.244.879a1.112,1.112,0,0,1-.455.2c-.256.557.245.73,1.478.73s1.657-.173,1.4-.73a1.6,1.6,0,0,1-.589-.2c-.178-.151-.256-.366-.256-.879V635.6c0-1.39.511-1.756.844-1.823m29.589,0a.726.726,0,0,0,.742.645.8.8,0,0,0,.761-.835.874.874,0,0,0-.934-.878,1.743,1.743,0,0,0-1.414,1l-.033.011c-.1-.532-.356-.934-.879-.934a1.441,1.441,0,0,0-.409.067c-.438.133-1.092.477-.854,1.088.625-.12.844.09.844.633v2.585c0,.513-.064.728-.248.879a1.079,1.079,0,0,1-.449.2c-.258.557.247.73,1.48.73s1.651-.173,1.393-.73a1.669,1.669,0,0,1-.59-.2c-.169-.151-.244-.366-.244-.879V635.6c0-1.39.5-1.756.835-1.823" transform="translate(-144.227 -595.799)"/><path class="a" d="M0,640.6a4.139,4.139,0,0,0,4.035,4.467c1.89,0,3.213-1.329,3.213-2.435a.919.919,0,0,0-.845-1.018.863.863,0,0,0-.9.9,1.021,1.021,0,0,0,.345.728,1.755,1.755,0,0,1-1.646.9c-1.4,0-2.412-1.459-2.412-3.557s.967-3.568,2.368-3.568a1.763,1.763,0,0,1,1.646.9,1.041,1.041,0,0,0-.345.734.863.863,0,0,0,.9.9.923.923,0,0,0,.844-1.023c0-1.1-1.323-2.435-3.213-2.435A4.215,4.215,0,0,0,0,640.6" transform="translate(0 -601.753)"/><path class="b" d="M113.649,16.032l-11.8,11.412a2.411,2.411,0,0,0,0,3.859l11.8,11.408a.3.3,0,0,0,.211.108.2.2,0,0,0,.185-.221.338.338,0,0,0-.1-.221,19.636,19.636,0,0,1-4.783-12.963,19.862,19.862,0,0,1,4.783-13.047.332.332,0,0,0,.1-.221.2.2,0,0,0-.185-.221.3.3,0,0,0-.211.106" transform="translate(-95.439 -15.066)"/><path class="a" d="M392.62,0C388,0,386.2,6.545,386.2,14.347s1.8,14.262,6.423,14.262c2.772,0,5.134-1.623,5.142-2.957a1.123,1.123,0,0,0-.356-.816,5.176,5.176,0,0,1-1.831-3.657,3.758,3.758,0,0,1,3.554-3.729c2.349,0,3.735,1.847,3.735,4.238a9.912,9.912,0,0,1-2.016,5.665.348.348,0,0,0-.06.191.2.2,0,0,0,.175.216.324.324,0,0,0,.219-.116l11.8-11.408a2.411,2.411,0,0,0,0-3.859L401.182.966a.325.325,0,0,0-.219-.115c-.105,0-.174.1-.175.217a.351.351,0,0,0,.06.192,9.908,9.908,0,0,1,2.016,5.663c0,2.39-1.386,4.238-3.735,4.238a3.757,3.757,0,0,1-3.554-3.728,5.174,5.174,0,0,1,1.831-3.657,1.122,1.122,0,0,0,.356-.815C397.754,1.624,395.391,0,392.62,0" transform="translate(-365.342 0)"/></svg>