<svg xmlns="http://www.w3.org/2000/svg" width="35.795" height="35.795" viewBox="0 0 35.795 35.795"><defs><style>.a{fill:#8abb2a;}</style></defs><g transform="translate(-42.106 2.715)"><g transform="translate(42.106 -2.715)"><g transform="translate(0 0)"><path class="a" d="M100.818,15.959A17.9,17.9,0,1,0,70.366,30.595,17.853,17.853,0,0,0,83,35.837a17.983,17.983,0,0,0,9.228-2.543.937.937,0,1,0-.965-1.607,15.989,15.989,0,0,1-16.955-.294l.368-.668h.268a2.6,2.6,0,0,0,2.6-2.6V27.32a.719.719,0,0,1,.139-.427,2.6,2.6,0,0,0-.836-3.8L75.3,22.227,72.864,18.72a.938.938,0,0,0-.77-.4H67.881a.938.938,0,0,0-.444.112l-.415.224q-.036-.808.01-1.617l1.018-.238a.938.938,0,0,0,.361-.172l3.65-2.831,1.227-.561A3.663,3.663,0,0,0,75.42,9.91,3.979,3.979,0,0,0,72.3,6.03a15.929,15.929,0,0,1,7.852-3.854q-.05.111-.1.224c-.685,1.57-.811,2.322-.478,2.871a1.093,1.093,0,0,0,.944.528h4.916A4.2,4.2,0,0,1,89.1,7.958L90.52,10.52H89.163a3.647,3.647,0,0,1-1.464-.309,1.571,1.571,0,0,0-1.555-1.367H84.219a5.018,5.018,0,0,0-4.006,2.011l-.748,1a5,5,0,0,0,.525,6.569l.139.135a4.97,4.97,0,0,0,3.481,1.412h1.943l.826,2.943a3.08,3.08,0,0,0-.413,3.761l1.682,2.73a2.695,2.695,0,0,0,4.6-.01l2.415-3.961A4.755,4.755,0,0,0,95.3,22.28a2.881,2.881,0,0,1,.591-2.2L97.385,18.2a3.554,3.554,0,0,0,.626-3.2h0a4.55,4.55,0,0,0-2.436-2.845l-1.837-.861L95.7,10.057a2.05,2.05,0,0,0,.764-.859,15.948,15.948,0,0,1,.207,17.144.938.938,0,0,0,1.6.985A17.983,17.983,0,0,0,100.818,15.959Zm-32.7,4.233H71.6l2.279,3.284a.938.938,0,0,0,.315.285l1.742.968a.723.723,0,0,1,.233,1.059,2.582,2.582,0,0,0-.5,1.533v.807a.724.724,0,0,1-.723.723h-.822a.938.938,0,0,0-.821.485l-.515.935q-.567-.472-1.1-1a15.939,15.939,0,0,1-4.454-8.6ZM73.545,9.91a1.783,1.783,0,0,1-1.039,1.618l-1.325.606a.942.942,0,0,0-.185.112l-3.574,2.772-.158.037A15.93,15.93,0,0,1,70.607,7.8a.943.943,0,0,0,.136.011h.7A2.1,2.1,0,0,1,73.545,9.91Zm21.234,3.944a2.674,2.674,0,0,1,1.432,1.672,1.677,1.677,0,0,1-.3,1.509l-1.492,1.881a4.764,4.764,0,0,0-.977,3.636,2.876,2.876,0,0,1-.389,1.91l-2.415,3.961a.82.82,0,0,1-1.4,0L87.563,25.7a1.2,1.2,0,0,1,.174-1.484l.357-.357a.937.937,0,0,0,.24-.916l-1.166-4.155a.938.938,0,0,0-.9-.684H83.61a3.1,3.1,0,0,1-2.175-.882l-.139-.135a3.121,3.121,0,0,1-.328-4.1l.749-1a3.135,3.135,0,0,1,2.5-1.256h1.647a1.558,1.558,0,0,0,.837,1.1,5.528,5.528,0,0,0,2.46.581h2.5Zm.01-5.536a.18.18,0,0,1-.084.153L92.35,9.953,90.737,7.047A6.074,6.074,0,0,0,85.43,3.924H81.453a20.486,20.486,0,0,1,.885-1.992A15.987,15.987,0,0,1,94.358,6.6q.348.348.67.712A2.1,2.1,0,0,0,94.789,8.318Z" transform="translate(-65.13 -0.042)"/></g></g><g transform="translate(71.108 25.894)"><path class="a" d="M376.122,308.064a.938.938,0,0,0-1.326.022l-.019.02-.02.019a.938.938,0,1,0,1.326,1.325l.01-.01.021-.021.021-.022.008-.008A.938.938,0,0,0,376.122,308.064Z" transform="translate(-374.484 -307.801)"/></g></g></svg>