<svg xmlns="http://www.w3.org/2000/svg" width="17" height="12.75" viewBox="0 0 17 12.75"><defs><style>.a{fill:#418b3d;}</style></defs><g transform="translate(0)"><g transform="translate(0)"><g transform="translate(0)"><path class="a" d="M16.859,1.373A2.125,2.125,0,0,0,14.875,0H2.125a2.125,2.125,0,0,0-2,1.416A1.976,1.976,0,0,0,0,2.125v8.5a2.125,2.125,0,0,0,1.328,1.968,2.085,2.085,0,0,0,.8.157h12.75a1.944,1.944,0,0,0,.757-.149,2.083,2.083,0,0,0,1.1-.943A2.125,2.125,0,0,0,17,10.625v-8.5a2.088,2.088,0,0,0-.141-.752ZM1.416,2.125a.712.712,0,0,1,.709-.709h12.75a.712.712,0,0,1,.709.709V2.26L9.937,6.51l-1.171.906-.266.2-.266-.207L7.05,6.524,1.416,2.287Zm0,8.5V4.059l4.457,3.35L1.432,10.745A.531.531,0,0,1,1.416,10.625Zm1.594.709L7.055,8.3l1.02.77a.7.7,0,0,0,.85,0L9.937,8.3l4.016,3.033Zm12.575-.709a.531.531,0,0,1-.021.149L11.114,7.408l4.47-3.379Z" transform="translate(0)"/></g></g></g></svg>