<svg xmlns="http://www.w3.org/2000/svg" width="26" height="34.673" viewBox="0 0 26 34.673"><defs><style>.a{fill:#418b3d;}</style></defs><path class="a" d="M25.045,6.535,19.364.855a3.25,3.25,0,0,0-2.3-.955H3.25A3.261,3.261,0,0,0,0,3.157V31.323a3.251,3.251,0,0,0,3.25,3.25h19.5A3.251,3.251,0,0,0,26,31.323V8.837a3.266,3.266,0,0,0-.955-2.3ZM22.486,8.573H17.333V3.421ZM3.25,31.323V3.157H14.083V10.2a1.621,1.621,0,0,0,1.625,1.625H22.75v19.5Zm16.94-9.73c-.826-.812-3.182-.589-4.36-.44a5.872,5.872,0,0,1-2.492-3.135,8.515,8.515,0,0,0,.366-3.792,1.509,1.509,0,0,0-2.884-.4,9.752,9.752,0,0,0,.474,4.543,54.369,54.369,0,0,1-2.4,5.037c-1.354.7-3.182,1.774-3.453,3.128-.223,1.07,1.76,3.737,5.153-2.112a33.569,33.569,0,0,1,4.631-1.361,9.009,9.009,0,0,0,3.778,1.151A1.564,1.564,0,0,0,20.19,21.594ZM6.778,26.861a8.119,8.119,0,0,1,2.058-2.37c-1.286,2.052-2.058,2.417-2.058,2.37ZM12.3,13.956c.5,0,.454,2.173.122,2.762A5.678,5.678,0,0,1,12.3,13.956ZM10.65,23.2a26.576,26.576,0,0,0,1.672-3.7,7.46,7.46,0,0,0,2.038,2.4A22.908,22.908,0,0,0,10.65,23.2Zm8.91-.339s-.339.406-2.525-.528C19.412,22.162,19.8,22.7,19.561,22.866Z" transform="translate(0 0.1)"/></svg>