<svg width="142" height="117" viewBox="0 0 142 117" fill="none" xmlns="http://www.w3.org/2000/svg">
<path d="M137 0H5C2.23858 0 0 2.23858 0 5V112C0 114.761 2.23858 117 5 117H137C139.761 117 142 114.761 142 112V5C142 2.23858 139.761 0 137 0Z" fill="url(#paint0_linear)"/>
<path d="M37.9419 98.7799C46.8391 95.3636 70.4036 88.3683 87.2954 86.774C105.219 85.0822 110.376 88.8889 111.505 89.0516C112.633 89.2468 113.761 90.9712 111.505 90.6133C109.248 90.2554 98.0622 86.9693 80.5258 90.3205C66.5998 92.9559 47.9029 98.7148 42.9063 101.545C37.8774 104.376 35.5242 99.6909 37.9419 98.7799Z" fill="white"/>
<path d="M48.5476 11.4527C47.4838 11.29 42.5839 16.0078 41.6813 17.6997C40.8109 19.3915 43.2286 16.9188 45.4207 15.8451C47.3885 14.8812 50.7322 11.9338 48.5926 11.4614C48.5779 11.4581 48.5629 11.4552 48.5476 11.4527Z" fill="#8DC63F"/>
<path d="M58.2955 25.5031C58.2114 25.4544 58.0415 25.2968 58.138 25.3085C58.2396 25.3208 58.4886 25.2029 58.3944 25.1629C53.0148 22.8755 52.3081 18.8965 51.9646 16.6583C51.7389 15.2267 50.0949 19.8794 50.1916 21.0507C50.2561 21.9617 49.7081 24.4345 57.7026 26.3866C60.5716 27.1024 63.1505 27.3627 65.2781 27.3953C62.6426 27.2118 60.2347 26.6261 58.2955 25.5031Z" fill="#8DC63F"/>
<path d="M65.2459 27.4279C68.233 27.6878 71.5034 27.4586 74.7068 26.9222C76.2095 26.6706 87.4092 21.2553 87.9483 19.8302C88.2006 19.1632 88.6394 18.3227 88.5156 19.025C88.2955 20.2743 87.6504 22.1471 87.0052 22.8403C86.9585 22.8874 86.9076 22.9377 86.8527 22.9905C86.7457 23.0932 86.9026 23.3576 87.0375 23.2958C93.6781 20.3024 98.8359 14.2833 99.9642 12.9167C99.3517 13.6 97.5787 15.2268 94.7097 14.8364C93.1623 14.6086 90.1644 12.5914 88.617 12.6564C87.0697 12.7215 85.2 14.9991 82.9435 15.5847C80.687 16.1704 77.1732 14.5435 75.1101 14.999C73.4016 15.3569 65.2136 22.1895 62.2479 24.5647C61.2486 25.3455 59.8625 25.4757 58.9276 25.4432C58.7115 25.431 58.616 25.7296 58.8105 25.8246C60.6536 26.7254 62.8666 27.2324 65.2459 27.4279Z" fill="#8DC63F"/>
<path d="M82.494 26.1937C81.8728 26.428 81.8868 27.8738 82.4599 28.2087C83.1863 28.6331 82.7883 29.0271 82.029 28.6647C81.7093 28.5121 81.363 28.3711 80.9771 28.2412C80.2491 28.0061 79.0738 27.7178 78.2118 27.5924C78.0371 27.5669 77.8594 27.5823 77.6889 27.6283C76.8334 27.859 76.0171 28.0545 75.2034 28.2175C74.246 28.4094 73.8676 30.4199 74.5943 31.0719C75.3035 31.6901 75.916 32.4058 76.4318 33.1867C76.6922 33.6073 76.2123 33.8686 75.9054 33.4807C74.9835 32.3149 73.9322 31.2567 72.7569 30.5838C71.4783 29.8636 70.0352 29.2817 68.5792 28.9404C68.3354 28.8832 68.0679 28.8581 67.8175 28.8557C64.3409 28.8218 60.5949 33.7422 63.2912 35.9373C65.2088 37.4984 67.8769 38.7402 71.5964 39.0107C83.8139 39.8892 93.8393 28.3388 96.2248 22.8728C96.5626 22.092 93.7269 20.1746 93.0297 20.662C90.1456 22.6784 86.5296 24.6717 82.494 26.1937Z" fill="#8DC63F"/>
<path d="M107.862 47.9584C105.96 46.3316 106.411 43.3708 108.088 41.5163C109.409 40.0847 110.054 41.3211 110.376 40.6703C110.538 40.345 108.732 38.7833 106.992 37.5143C104.767 35.9201 104.09 35.7249 103.349 36.3756C101.963 37.5794 100.899 41.3536 101.64 43.5986C102.446 46.0388 104.735 48.1211 106.54 49.6829C111.472 53.9126 110.151 57.1336 108.249 63.6734C106.444 69.9203 101.608 75.8094 99.4483 74.1826C98.0944 73.174 98.5457 71.0916 99.3194 69.1069C100.125 67.0572 102.382 64.9423 101.479 62.2418C101.125 61.2001 99.7735 60.3218 96.634 58.1624C96.0319 57.7482 95.1563 57.9244 95.709 58.4025C97.5142 60.0294 93.807 67.6103 94.6129 70.7337C95.1932 72.9462 97.1596 76.1998 100.802 76.8505C105.67 77.729 111.247 72.328 114.18 65.7557C118.758 55.637 112.955 52.3183 107.862 47.9584Z" fill="white"/>
<path d="M57.6381 55.9621C59.3144 55.8319 60.3782 61.2655 59.8624 64.877C58.992 71.2866 54.8981 79.4206 47.9995 85.5374C46.0654 87.2293 44.6147 87.9451 46.5489 87.5221C54.1889 85.7652 65.3426 75.679 67.0833 63.4779C67.6313 59.6712 66.4386 58.2721 60.3137 54.3353C58.1861 52.9687 54.2856 54.0424 52.835 56.4501C51.4166 58.7927 52.6093 59.7037 54.1889 61.0702C55.0592 61.8186 55.9941 62.6645 55.5105 61.1353C54.9948 59.7363 55.704 56.1573 57.6381 55.9621Z" fill="white"/>
<path d="M58.5085 41.2558C57.0359 40.1941 55.5632 38.7931 52.8368 37.0527C52.4319 36.7943 51.9154 36.7479 52.2762 37.065C52.3928 37.1674 52.5399 37.2781 52.706 37.384C53.2862 37.7744 53.8665 41.6788 42.0036 42.0367C33.1387 42.3295 29.4315 50.3984 26.7559 63.7383C24.0803 76.9805 25.4343 85.5375 29.4638 88.661C33.5577 91.8495 43.1319 81.5355 46.5167 73.8245C49.9337 66.1459 50.0949 62.2741 43.2608 56.743C39.5859 53.7497 38.2965 54.921 36.3301 57.1985C32.494 61.6234 30.1085 67.8053 29.0125 72.9135C29.3993 68.6187 30.9144 60.1918 33.8479 53.9774C37.2327 46.8195 41.4878 46.364 50.0304 46.9821C57.9927 47.5027 60.1525 42.4271 58.5085 41.2558ZM32.1071 70.7986C33.461 66.0483 37.2971 59.1832 39.6826 59.0205C42.0358 58.8578 41.1332 66.3737 39.2635 72.6206C37.3294 79.0953 32.2683 86.6112 30.4953 84.5614C28.7223 82.4791 31.0756 74.3451 32.1071 70.7986Z" fill="white"/>
<path d="M91.8729 42.2644C91.2926 41.9716 92.0341 42.8176 92.2275 43.1104C92.8077 44.0214 92.711 45.8434 86.5539 47.0147C84.2974 47.4377 80.6547 47.8932 78.3337 49.2923C74.7878 51.4722 71.822 60.4196 70.6938 68.1307C70.1458 71.9374 69.6945 75.5489 74.5299 78.2169C77.7535 79.7461 81.5896 78.1193 84.0395 75.6791C86.4895 73.2389 90.7124 66.8943 90.4223 64.2264C90.1966 62.2416 89.0361 61.233 87.1664 59.6062C85.0388 58.1096 83.5882 57.2962 82.879 57.3938C81.5339 57.5941 78.4596 55.8441 79.3292 54.7985C80.6643 53.1933 82.1432 52.272 83.8783 52.0904C87.3276 51.7325 92.163 52.1229 95.4189 50.1382C96.3859 49.5525 97.9977 48.0233 97.8043 46.9822C97.5787 45.9736 92.2597 42.4597 91.8729 42.2644ZM82.6534 60.1919C84.2974 59.9641 84.1362 64.2589 82.6856 67.9029C81.4284 71.0589 77.6568 77.1107 75.0134 76.102C73.4661 75.5164 74.3687 72.7834 74.7878 71.6121C76.8831 65.3651 81.0093 60.4196 82.6534 60.1919Z" fill="white"/>
<defs>
<linearGradient id="paint0_linear" x1="0" y1="58.502" x2="141.986" y2="58.502" gradientUnits="userSpaceOnUse">
<stop stop-color="#003F1B"/>
<stop offset="1" stop-color="#439E51"/>
</linearGradient>
</defs>
</svg>
