<svg xmlns="http://www.w3.org/2000/svg" width="27.429" height="24" viewBox="0 0 27.429 24"><defs><style>.a{fill:#418b3d;}</style></defs><g transform="translate(0 -1)"><g transform="translate(0 1)"><path class="a" d="M25.714,1h-24A1.62,1.62,0,0,0,0,2.714V23.286A1.62,1.62,0,0,0,1.714,25h24a1.62,1.62,0,0,0,1.714-1.714V2.714A1.62,1.62,0,0,0,25.714,1ZM10.286,6.143A1.62,1.62,0,0,1,12,7.857a1.62,1.62,0,0,1-1.714,1.714A1.62,1.62,0,0,1,8.571,7.857,1.62,1.62,0,0,1,10.286,6.143ZM3.429,19.857,6.857,13,12,16.429l5.143-6.857L24,19.857Z" transform="translate(0 -1)"/></g></g></svg>