<svg width="48" height="49" viewBox="0 0 48 49" fill="none" xmlns="http://www.w3.org/2000/svg">
<g clip-path="url(#clip0)">
<path d="M23.9971 0.074707C14.4116 0.074707 6.61328 7.98941 6.61328 17.7179C6.61328 29.7912 22.1701 47.5155 22.8324 48.2641C23.4545 48.9673 24.5407 48.9661 25.1617 48.2641C25.8241 47.5155 41.3808 29.7912 41.3808 17.7179C41.3807 7.98941 33.5824 0.074707 23.9971 0.074707ZM23.9971 44.7691C18.7614 38.4571 9.74378 26.004 9.74378 17.718C9.74378 9.7413 16.1377 3.25193 23.9971 3.25193C31.8564 3.25193 38.2503 9.7413 38.2503 17.7179C38.2502 26.0043 29.234 38.4551 23.9971 44.7691Z" fill="white" fill-opacity="0.3"/>
<path d="M23.9961 8.84033C19.1734 8.84033 15.25 12.8224 15.25 17.7171C15.25 22.6118 19.1735 26.5939 23.9961 26.5939C28.8187 26.5939 32.7421 22.6118 32.7421 17.7171C32.7421 12.8224 28.8187 8.84033 23.9961 8.84033ZM23.9961 23.4166C20.8996 23.4166 18.3805 20.8599 18.3805 17.7171C18.3805 14.5743 20.8997 12.0176 23.9961 12.0176C27.0926 12.0176 29.6117 14.5743 29.6117 17.7171C29.6117 20.8599 27.0926 23.4166 23.9961 23.4166Z" fill="white" fill-opacity="0.3"/>
</g>
<defs>
<clipPath id="clip0">
<rect y="0.074707" width="48" height="48.7164" fill="white"/>
</clipPath>
</defs>
</svg>
