<svg xmlns="http://www.w3.org/2000/svg" width="28.973" height="40" viewBox="0 0 28.973 40">
  <g id="maps-and-flags" transform="translate(-70.573)">
    <path id="Path_38" data-name="Path 38" d="M85.059,0A14.5,14.5,0,0,0,70.573,14.486c0,9.913,12.964,24.466,13.516,25.081a1.3,1.3,0,0,0,1.941,0c.552-.615,13.516-15.168,13.516-25.081A14.5,14.5,0,0,0,85.059,0Zm0,36.7C80.7,31.515,73.182,21.29,73.182,14.487a11.878,11.878,0,1,1,23.755,0C96.937,21.29,89.424,31.513,85.059,36.7Z" transform="translate(0 0)" fill="#171717"/>
    <path id="Path_39" data-name="Path 39" d="M170,92.134a7.289,7.289,0,1,0,7.288,7.289A7.3,7.3,0,0,0,170,92.134Zm0,11.968a4.68,4.68,0,1,1,4.68-4.68A4.685,4.685,0,0,1,170,104.1Z" transform="translate(-84.937 -84.936)" fill="#171717"/>
  </g>
</svg>
