<svg xmlns="http://www.w3.org/2000/svg" width="11.869" height="20.348" viewBox="0 0 11.869 20.348"><defs><style>.a{fill:#418b3d;}</style></defs><g transform="translate(-0.64 -1)"><g transform="translate(0.64 1)"><path class="a" d="M10.174,0H1.695A1.7,1.7,0,0,0,0,1.695V18.653a1.7,1.7,0,0,0,1.695,1.695h8.479a1.7,1.7,0,0,0,1.695-1.695V1.695A1.7,1.7,0,0,0,10.174,0ZM1.695,18.653V1.695h8.479V18.653Z"/><path class="a" d="M15.413,8H11.165a.426.426,0,0,0,0,.849h4.248a.426.426,0,0,0,0-.849Z" transform="translate(-7.35 -5.456)"/><circle class="a" cx="0.849" cy="0.849" r="0.849" transform="translate(5.077 16.107)"/></g></g></svg>