<svg xmlns="http://www.w3.org/2000/svg" width="53.287" height="34.579" viewBox="0 0 53.287 34.579">
  <g id="Group_55" data-name="Group 55" transform="translate(-9.061 -10.469)">
    <path id="Path_6" data-name="Path 6" d="M111.612,247.738c4.334-1.035,15.662-2.84,23.587-2.558,8.409.3,10.577,2.353,11.09,2.505s.928,1.022-.1.718a34.335,34.335,0,0,0-14.337-1.995c-6.62.38-15.625,1.9-18.112,2.9s-3.305-1.288-2.129-1.568" transform="translate(-93.43 -204.508)" fill="#171717"/>
    <path id="Path_7" data-name="Path 7" d="M138.675,55.292c-.523-.083-2.946,2.22-3.378,3.047s.758-.377,1.838-.9a3.414,3.414,0,0,1,1.858-.4s.362-1.637-.318-1.746" transform="translate(-113.719 -44.821)" fill="#8abb2a"/>
    <path id="Path_8" data-name="Path 8" d="M165.883,74.876a3.677,3.677,0,0,0,.491.047,4.891,4.891,0,0,1-3.436-4.253c-.116-.7-.914,1.573-.876,2.146.03.444-.233,1.656,3.7,2.611a17.731,17.731,0,0,0,3.728.5,8.2,8.2,0,0,1-3.6-1.046" transform="translate(-136.305 -57.645)" fill="#8abb2a"/>
    <path id="Path_9" data-name="Path 9" d="M316.49,59.018a1.6,1.6,0,0,0,.113-.137c.014-.018-.028.034-.113.137" transform="translate(-266.193 -47.838)" fill="#8abb2a"/>
    <path id="Path_10" data-name="Path 10" d="M189.719,66.129a23.144,23.144,0,0,0,8.626-1.218,4.58,4.58,0,0,0,2.8-3.466c.291.024-.206,1.923-.691,2.442a3.381,3.381,0,0,1-.561.458c.2-.08.392-.16.575-.241a19.572,19.572,0,0,0,6.365-5.073,2.912,2.912,0,0,1-2.59.935c-.76-.1-2.241-1.1-3.008-1.072s-1.679,1.15-2.79,1.429-2.843-.5-3.868-.286c-.842.178-4.88,3.517-6.334,4.666a2.573,2.573,0,0,1-1.64.427,3.584,3.584,0,0,1-.49-.047,8.205,8.205,0,0,0,3.6,1.046" transform="translate(-156.539 -47.851)" fill="#8abb2a"/>
    <path id="Path_11" data-name="Path 11" d="M197.934,70.217a3.649,3.649,0,0,1,2.69,1.72,5.551,5.551,0,0,0-1.973-1.2,9.023,9.023,0,0,0-1.5-.326,17.075,17.075,0,0,1-3.572.605,5.1,5.1,0,0,1,1.919,1.118,5.2,5.2,0,0,1,.908,1.033,9.067,9.067,0,0,1,.744,1.607,8.1,8.1,0,0,0-2.557-2.87,7.983,7.983,0,0,0-2.244-.848A18.275,18.275,0,0,1,187.5,70.6a6.953,6.953,0,0,0,6.513,5.4c6.026.432,10.965-5.214,12.135-7.885,1.1-2.508,1.685-4.225,1.685-4.225-.878,1.7-4.9,4.832-9.9,6.328" transform="translate(-157.703 -52.053)" fill="#8abb2a"/>
    <path id="Path_12" data-name="Path 12" d="M315.508,135.648c-.134-1.3-2.25,3.487-3.489-.014-.792-2.237-1.1-6.86-.179-12.011.161-.9-1.871-2.317-2.241-2.149s-4.667,8.548-6.51,9.755c-.581.383-.774-1.585.676-4.482,1.527-3.053,3.521-8.353,7.4-8.286a1.684,1.684,0,0,1,1.245.563c.1.024.2.047.3.065a.69.69,0,0,0,.19-.125c.006-.028.009-.056.015-.084-.039-.042-.074-.081-.1-.1-2.021-2.013-3.132-3.232-5.421-1.678-3.122,2.121-6.3,8.581-6.39,13.267-.027,1.345,1.746,2.492,2.378,2.521,1.375.061,2.561-2.269,3.433-3.833,1.028-1.843,1.822-3.273,1.895-3.536s-.082,5.357.228,7.281c.7,4.328,3.929,5.035,5.542,4.393a1.573,1.573,0,0,0,1.028-1.546" transform="translate(-253.168 -96.215)" fill="#171717"/>
    <path id="Path_13" data-name="Path 13" d="M155.563,166.536c-1.173.385-1.336-1.064-.926-2.021,1.063.571,4-1.446,4.657-2.438.759-1.153-.492-2.556-1.208-3.064-1.539-1.091-3.475-.7-4.915,1.666-1.2,1.969-1.544,4.616-.277,6.308.945,1.264,2.881,1.215,5.145-.17a21.629,21.629,0,0,0,5.67-4.4c.075-.367-.152-.745-.042-1.1a24,24,0,0,1-8.1,5.218m2.721-6.2c.332.339-.485,1.2-1.873,2.424a6.231,6.231,0,0,1-1.588.91c.043-.123.083-.242.13-.376C155.868,160.711,157.411,159.451,158.284,160.34Z" transform="translate(-127.922 -131.572)" fill="#171717"/>
    <path id="Path_14" data-name="Path 14" d="M228.386,164.273c-1.675,1.737-5.3,5.084-6.28,4.994-1.024-.092.45-2.523,1.739-4.931.094-.178.29-.211.191-.363a10.337,10.337,0,0,0-1.906-1.075,5.007,5.007,0,0,0-1.668.494,16.3,16.3,0,0,0-4.1,3.076c-.341.332.671-1.265.43-2.392-.23-1.074-3.228-1.364-3.027-1.169.227.218-.07,2.965-.468,4.34-.524,1.806-.974,2.45-.783,2.743.338.522,2.255.343,2.333.13a10.046,10.046,0,0,1,4.888-4.837c1.414-.571-.224.494-.668,3.561-.256,1.758,1.675,2.349,3.6,1.615,1.353-.516,4.237-3.527,5.437-4.943.022-.352.214-.9.274-1.243" transform="translate(-178.708 -135.288)" fill="#171717"/>
    <path id="Path_15" data-name="Path 15" d="M122.48,133.862c-.7-2.254.034-9.59,1.222-14.7.208-.9-1.812-2.384-2.19-2.229a35.644,35.644,0,0,0-1.565,6.151,52.129,52.129,0,0,0-.27,7.924c.473,4.348,2.884,5.136,4.631,5.129a2.947,2.947,0,0,0,2.175-1.453c-.2.26-3.125,1.993-4-.817" transform="translate(-100.596 -96.654)" fill="#171717"/>
    <path id="Path_16" data-name="Path 16" d="M69.51,90.857c-.205.139-.388-.829-.648-.6-2.433,2.1-7.2,12.357-7.637,13.372-.254.586.561-2.035,1.529-5.609A57.736,57.736,0,0,0,64.5,89.173c.054-1.352-.04-1.695-1.674-2.993-.846-.673-2.388-1.263-2.171-.878.181.322.56.652.319,3.8A147.491,147.491,0,0,1,57.6,108.688c-.165.685-.468,1.78-.571,2.477-.147.992,1.974,1.987,2.208,1.091,2.388-9.131,6.7-15.518,9.775-18.549a17.357,17.357,0,0,1,.5-2.85" transform="translate(-47.957 -69.961)" fill="#171717"/>
  </g>
</svg>
