<svg xmlns="http://www.w3.org/2000/svg" width="17.966" height="17.26" viewBox="0 0 17.966 17.26"><defs><style>.a{fill:#418b3d;}</style></defs><g transform="translate(0 -0.004)"><g transform="translate(0 0.004)"><path class="a" d="M21.161,4.691a3.318,3.318,0,0,0,.415-2.366A2.866,2.866,0,0,0,20.229.4a3.112,3.112,0,0,0-4.211,1.241L15.37,2.731l5.143,3.054Zm-1.185-.963L17.425,2.212a1.6,1.6,0,0,1,2.052-.525,1.378,1.378,0,0,1,.643.94,1.8,1.8,0,0,1-.143,1.1Z" transform="translate(-11.055 -0.004)"/><path class="a" d="M.424,25.425l.441.219,4.287-2.316L8.7,17.357,3.543,14.3,0,20.274l.022,4.444a.842.842,0,0,0,.4.707Zm3.649-9.073,2.574,1.527L4.073,22.208l-2.56,1.384L1.5,20.672Z" transform="translate(0 -10.287)"/><rect class="a" width="17.966" height="1.496" rx="0.748" transform="translate(0 15.764)"/></g></g></svg>