<svg xmlns="http://www.w3.org/2000/svg" xmlns:xlink="http://www.w3.org/1999/xlink" width="417.375" height="289.278" viewBox="0 0 417.375 289.278"><defs><style>.a{fill:#418b3d;stroke:#418b3d;stroke-miterlimit:10;}.b{fill:#f55f44;}.c{fill:#4d8af0;}.d{fill:#3ad29f;}.e{fill:#fdd835;}.f{opacity:0.1;}.g{fill:#fff;}.h{fill:#8abb2a;}.i{opacity:0.5;}.j{fill:url(#a);}.k{fill:#706a6a;}</style><linearGradient id="a" x1="0.5" y1="1" x2="0.5" gradientUnits="objectBoundingBox"><stop offset="0" stop-color="gray" stop-opacity="0.251"/><stop offset="0.535" stop-color="gray" stop-opacity="0.122"/><stop offset="1" stop-color="gray" stop-opacity="0.102"/></linearGradient></defs><g transform="translate(0 0)"><rect class="a" width="4.924" height="65.804" transform="translate(77.079 73.016)"/><rect class="b" width="48.913" height="29.634" transform="translate(182.38 118.988)"/><rect class="c" width="48.913" height="29.634" transform="translate(231.294 118.988)"/><rect class="d" width="48.913" height="29.634" transform="translate(280.207 118.988)"/><rect class="c" width="48.913" height="29.634" transform="translate(182.023 148.622)"/><rect class="b" width="48.913" height="29.634" transform="translate(133.467 148.622)"/><rect class="d" width="48.913" height="29.634" transform="translate(231.294 148.622)"/><rect class="e" width="48.913" height="29.634" transform="translate(280.207 148.622)"/><g class="f" transform="translate(191.128 118.81)"><rect width="6.427" height="29.634"/><rect width="6.427" height="29.634" transform="translate(12.496)"/><rect width="6.427" height="29.634" transform="translate(24.992)"/></g><g class="f" transform="translate(240.041 118.81)"><rect width="6.427" height="29.634"/><rect width="6.427" height="29.634" transform="translate(12.496)"/><rect width="6.427" height="29.634" transform="translate(24.992)"/></g><g class="f" transform="translate(288.954 118.81)"><rect width="6.427" height="29.634"/><rect width="6.427" height="29.634" transform="translate(12.496)"/><rect width="6.427" height="29.634" transform="translate(24.992)"/></g><g class="f" transform="translate(191.128 148.443)"><rect width="6.427" height="29.634"/><rect width="6.427" height="29.634" transform="translate(12.496)"/><rect width="6.427" height="29.634" transform="translate(24.992)"/></g><g class="f" transform="translate(142.214 148.443)"><rect width="6.427" height="29.634"/><rect width="6.427" height="29.634" transform="translate(12.496)"/><rect width="6.427" height="29.634" transform="translate(24.992)"/></g><g class="f" transform="translate(240.041 148.443)"><rect width="6.427" height="29.634"/><rect width="6.427" height="29.634" transform="translate(12.496)"/><rect width="6.427" height="29.634" transform="translate(24.992)"/></g><g class="f" transform="translate(288.954 148.443)"><rect width="6.427" height="29.634"/><rect width="6.427" height="29.634" transform="translate(12.496)"/><rect width="6.427" height="29.634" transform="translate(24.992)"/></g><rect class="a" width="378.709" height="11.639" transform="translate(9.708 212.905)"/><path class="a" d="M538.643,438.4H315.715a5.388,5.388,0,0,1-5.372-5.372V400.2L223.5,390.5v99.825H544.015v-57.3a5.388,5.388,0,0,1-5.372,5.372Z" transform="translate(-184.695 -271.6)"/><rect class="g" width="32.678" height="18.801" transform="translate(38.805 129.643)"/><circle class="a" cx="9.401" cy="9.401" r="9.401" transform="translate(70.141 63.391)"/><path class="h" d="M232.429,603.67c3.329-8.987,13.8-13.667,23.372-13.293s18.5,4.7,27.08,8.963,17.473,8.63,27.045,9.1c21.272,1.043,39.173-17.067,60.371-19.122,25.2-2.443,47.563,18.078,72.866,18.923a30.816,30.816,0,0,0,13.086-2.085c3.567-1.516,6.675-3.917,10.044-5.833,17-9.669,38.266-6.018,57.076-.657s38.335,12.23,57.455,8.111" transform="translate(-189.627 -381.306)"/><path class="h" d="M136.812,642.39c3.329-8.987,13.8-13.667,23.372-13.293s18.5,4.7,27.08,8.963,17.473,8.63,27.045,9.1c21.272,1.043,39.173-17.067,60.371-19.122,25.2-2.443,47.563,18.078,72.866,18.923a30.815,30.815,0,0,0,13.086-2.085c3.567-1.516,6.675-3.917,10.044-5.833,17-9.669,38.266-6.019,57.076-.657s38.335,12.23,57.455,8.111" transform="translate(-136.812 -402.694)"/><path class="h" d="M238.751,692.174c3.329-8.987,13.8-13.668,23.372-13.293s18.5,4.7,27.08,8.963,17.473,8.63,27.045,9.1c21.272,1.043,39.173-17.067,60.371-19.122,25.2-2.443,47.563,18.078,72.866,18.923a30.818,30.818,0,0,0,13.086-2.085c3.567-1.516,6.675-3.917,10.044-5.833,17-9.669,38.266-6.018,57.076-.657s38.335,12.23,57.455,8.111" transform="translate(-193.118 -430.192)"/><path class="h" d="M290.906,741.168c3.329-8.987,13.8-13.668,23.372-13.293s18.5,4.7,27.08,8.963,17.473,8.63,27.045,9.1c21.272,1.043,39.173-17.067,60.371-19.122,25.2-2.443,47.563,18.078,72.866,18.923a30.818,30.818,0,0,0,13.086-2.085c3.567-1.516,6.675-3.917,10.044-5.833,17-9.669,38.266-6.018,57.076-.657s38.335,12.23,57.455,8.111" transform="translate(-221.926 -457.254)"/><g class="i" transform="translate(104.48 29.814)"><path class="j" d="M383.438,212.674l-3.086-.546a19.935,19.935,0,0,1,.373-2.269c.524-6.617-4.064-13.579-10.515-15.335l.825-3.032a18,18,0,0,1,12.13,12.246,21.719,21.719,0,0,1,14.168-10.273l.621,3.08a18.917,18.917,0,0,0-14.116,13.814A15.883,15.883,0,0,1,383.438,212.674Z" transform="translate(-370.21 -191.492)"/></g><path class="k" d="M386.017,213.034l-2.638-.467a17.023,17.023,0,0,1,.318-1.94c.448-5.656-3.474-11.608-8.988-13.109l.706-2.591A15.388,15.388,0,0,1,385.783,205.4a18.566,18.566,0,0,1,12.111-8.781l.531,2.633a16.17,16.17,0,0,0-12.066,11.808A13.564,13.564,0,0,1,386.017,213.034Z" transform="translate(-268.216 -163.575)"/><g class="i" transform="translate(175.208 8.953)"><path class="j" d="M536.742,158.554l-1.991-.352a12.846,12.846,0,0,1,.24-1.464,9.773,9.773,0,0,0-6.782-9.892l.532-1.956a11.612,11.612,0,0,1,7.824,7.9,14.01,14.01,0,0,1,9.139-6.626l.4,1.987A12.2,12.2,0,0,0,537,157.06,10.254,10.254,0,0,1,536.742,158.554Z" transform="translate(-528.21 -144.89)"/></g><g class="i" transform="translate(296.52 0)"><path class="j" d="M807.742,138.554l-1.991-.352a12.874,12.874,0,0,1,.24-1.464,9.773,9.773,0,0,0-6.782-9.892l.532-1.956a11.612,11.612,0,0,1,7.824,7.9,14.009,14.009,0,0,1,9.139-6.626l.4,1.987A12.2,12.2,0,0,0,808,137.06,10.254,10.254,0,0,1,807.742,138.554Z" transform="translate(-799.21 -124.89)"/></g><path class="k" d="M540.754,159.113l-1.294-.229a8.353,8.353,0,0,1,.156-.951,6.35,6.35,0,0,0-4.407-6.428l.346-1.271a7.545,7.545,0,0,1,5.084,5.133,9.1,9.1,0,0,1,5.938-4.306l.26,1.291a7.929,7.929,0,0,0-5.917,5.79A6.649,6.649,0,0,1,540.754,159.113Z" transform="translate(-356.868 -138.889)"/><path class="k" d="M811.754,139.113l-1.294-.229a8.327,8.327,0,0,1,.156-.951,6.35,6.35,0,0,0-4.407-6.428l.346-1.271a7.545,7.545,0,0,1,5.084,5.133,9.1,9.1,0,0,1,5.938-4.306l.26,1.291a7.929,7.929,0,0,0-5.917,5.79A6.658,6.658,0,0,1,811.754,139.113Z" transform="translate(-506.556 -127.842)"/><g class="i" transform="translate(31.951 4.335)"><circle class="j" cx="29.992" cy="29.992" r="29.992"/></g><circle class="e" cx="27.754" cy="27.754" r="27.754" transform="translate(34.189 6.573)"/></g></svg>