<svg xmlns="http://www.w3.org/2000/svg" width="372.085" height="308.042" viewBox="0 0 372.085 308.042"><defs><style>.a{fill:#6c63ff;}.a,.d{opacity:0.1;}.b{fill:#3f3d56;}.c{fill:#418b3d;}.e{fill:#444053;}.f{fill:#fff;}.g{opacity:0.3;}.h{fill:none;stroke:#444053;stroke-miterlimit:10;stroke-width:3px;}</style></defs><g transform="translate(0.254)"><ellipse class="a" cx="8.049" cy="19.541" rx="8.049" ry="19.541" transform="translate(330.325 280.407) rotate(-45)"/><ellipse class="b" cx="4.32" cy="5.657" rx="4.32" ry="5.657" transform="translate(346.894 278.495)"/><ellipse class="b" cx="4.32" cy="5.657" rx="4.32" ry="5.657" transform="translate(346.894 271.581)"/><ellipse class="b" cx="4.32" cy="5.657" rx="4.32" ry="5.657" transform="translate(346.894 264.667)"/><ellipse class="b" cx="4.32" cy="5.657" rx="4.32" ry="5.657" transform="translate(346.894 257.754)"/><ellipse class="b" cx="4.32" cy="5.657" rx="4.32" ry="5.657" transform="translate(346.894 250.84)"/><ellipse class="b" cx="4.32" cy="5.657" rx="4.32" ry="5.657" transform="translate(346.894 243.927)"/><ellipse class="b" cx="4.32" cy="5.657" rx="4.32" ry="5.657" transform="translate(346.894 237.013)"/><path class="c" d="M996.048,508.617a20.576,20.576,0,0,0,1.611-2.368L986.3,504.385l12.281.089a20.752,20.752,0,0,0,.4-16.4l-16.472,8.548,15.184-11.17a20.7,20.7,0,1,0-34.185,23.165,20.593,20.593,0,0,0-2.359,3.773l14.737,7.65-15.7-5.275a20.717,20.717,0,0,0,3.338,19.436,20.7,20.7,0,1,0,32.534,0,20.7,20.7,0,0,0,0-25.593Z" transform="translate(-628.658 -313.258)"/><path class="d" d="M959.1,589.658a20.6,20.6,0,0,0,4.429,12.8,20.7,20.7,0,1,0,32.534,0C998.837,598.935,959.1,587.334,959.1,589.658Z" transform="translate(-628.674 -381.502)"/><path class="e" d="M381.636,0V289.91l-98.247-13.69L163.958,300.584l-.962.2L67.97,274.609V22.549L166.62,0,274.531,22.549l4.1-.866Z" transform="translate(-40.754)"/><path class="f" d="M389.619,39.32V298.713l-87.9-12.249-106.86,21.8-.862.173L108.97,285.023V59.493L197.239,39.32l96.548,20.173,3.672-.773Z" transform="translate(-65.245 -23.488)"/><path class="d" d="M425.791,276.22,306.36,300.584,309.022,0,416.932,22.549l4.1-.866Z" transform="translate(-183.155)"/><g class="g" transform="translate(35.27 55.566)"><path class="h" d="M573.35,138l.048,84.356h35.031V187.728h60l7.046-9.036" transform="translate(-377.911 -138)"/><path class="h" d="M88.97,199.124H219.228l8.053-3.624H230.5v81.336h56.371l2.416,7.248v36.641h43.486v45.3" transform="translate(-88.567 -172.347)"/><line class="h" y1="89.187" transform="translate(159.14 104.488)"/><line class="h" x1="138.42" transform="translate(159.14 169.782)"/><line class="h" y2="193.676" transform="translate(262.892)"/><line class="h" x2="297.56" transform="translate(0 152.662)"/><line class="h" y1="193.676" transform="translate(36.215)"/><line class="h" y2="193.676" transform="translate(105.382)"/><line class="h" x2="230.116" y2="0.805" transform="translate(0.403 48.922)"/><line class="h" y2="193.325" transform="translate(67.376 0.35)"/><path class="h" d="M87.97,370.82H193.352l53.758,58.916" transform="translate(-87.97 -277.074)"/><line class="h" y2="104.488" transform="translate(170.785)"/><line class="h" x2="138.42" transform="translate(159.14 123.204)"/></g><path class="c" d="M525.638,415.418H484.97V397.7l38.453-.2,2.416,6.845Z" transform="translate(-289.847 -237.446)"/><path class="c" d="M641.049,287.15a22.259,22.259,0,0,0-22.258,22.259c0,12.293,22.258,52.232,22.258,52.232s22.259-39.923,22.259-52.232A22.259,22.259,0,0,0,641.049,287.15Zm0,31.753a9.793,9.793,0,1,1,9.793-9.793,9.792,9.792,0,0,1-9.793,9.793Z" transform="translate(-425.391 -200.982)"/><path class="d" d="M641.049,287.15a22.259,22.259,0,0,0-22.258,22.259c0,12.293,22.258,52.232,22.258,52.232s22.259-39.923,22.259-52.232A22.259,22.259,0,0,0,641.049,287.15Zm0,31.753a9.793,9.793,0,1,1,9.793-9.793,9.792,9.792,0,0,1-9.793,9.793Z" transform="translate(-425.391 -200.982)"/><path class="c" d="M641.049,295.15a22.259,22.259,0,0,0-22.258,22.259c0,12.293,22.258,52.232,22.258,52.232s22.259-39.923,22.259-52.232A22.259,22.259,0,0,0,641.049,295.15Zm0,31.753a9.793,9.793,0,1,1,9.793-9.793,9.792,9.792,0,0,1-9.793,9.793Z" transform="translate(-425.391 -205.761)"/><ellipse class="a" cx="13.469" cy="5.549" rx="13.469" ry="5.549" transform="translate(191.356 295.544) rotate(-23.3)"/><ellipse class="b" cx="2.98" cy="3.898" rx="2.98" ry="3.898" transform="translate(202.781 289.221)"/><ellipse class="b" cx="2.98" cy="3.898" rx="2.98" ry="3.898" transform="translate(202.781 284.454)"/><ellipse class="b" cx="2.98" cy="3.898" rx="2.98" ry="3.898" transform="translate(202.781 279.69)"/><ellipse class="b" cx="2.98" cy="3.898" rx="2.98" ry="3.898" transform="translate(202.781 274.927)"/><ellipse class="b" cx="2.98" cy="3.898" rx="2.98" ry="3.898" transform="translate(202.781 270.16)"/><ellipse class="b" cx="2.98" cy="3.898" rx="2.98" ry="3.898" transform="translate(202.781 265.396)"/><ellipse class="b" cx="2.98" cy="3.898" rx="2.98" ry="3.898" transform="translate(202.781 260.633)"/><path class="c" d="M617.269,614.873a14.527,14.527,0,0,1-1.111-1.611l7.828-1.288-8.456.064a14.31,14.31,0,0,1-.274-11.3l11.355,5.871-10.469-7.7A14.266,14.266,0,1,1,639.7,614.873a14.321,14.321,0,0,1,1.61,2.6l-10.151,5.279,10.831-3.624a14.274,14.274,0,0,1-2.3,13.4,14.266,14.266,0,1,1-22.424,0,14.27,14.27,0,0,1,0-17.64Z" transform="translate(-422.658 -382.953)"/><path class="d" d="M642.745,670.693a14.206,14.206,0,0,1-3.052,8.822,14.266,14.266,0,1,1-22.424,0C615.356,677.1,642.745,669.107,642.745,670.693Z" transform="translate(-422.658 -429.968)"/><ellipse class="a" cx="8.049" cy="19.541" rx="8.049" ry="19.541" transform="translate(-0.254 271.549) rotate(-45)"/><ellipse class="b" cx="4.32" cy="5.657" rx="4.32" ry="5.657" transform="translate(16.317 269.636)"/><ellipse class="b" cx="4.32" cy="5.657" rx="4.32" ry="5.657" transform="translate(16.317 262.723)"/><ellipse class="b" cx="4.32" cy="5.657" rx="4.32" ry="5.657" transform="translate(16.317 255.809)"/><ellipse class="b" cx="4.32" cy="5.657" rx="4.32" ry="5.657" transform="translate(16.317 248.896)"/><ellipse class="b" cx="4.32" cy="5.657" rx="4.32" ry="5.657" transform="translate(16.317 241.982)"/><ellipse class="b" cx="4.32" cy="5.657" rx="4.32" ry="5.657" transform="translate(16.317 235.068)"/><ellipse class="b" cx="4.32" cy="5.657" rx="4.32" ry="5.657" transform="translate(16.317 228.155)"/><path class="c" d="M175.048,486.616a20.581,20.581,0,0,0,1.611-2.368L165.3,482.385l12.281.089a20.753,20.753,0,0,0,.4-16.4l-16.473,8.548,15.184-11.17a20.7,20.7,0,1,0-34.185,23.165,20.6,20.6,0,0,0-2.36,3.773l14.737,7.65-15.7-5.275a20.716,20.716,0,0,0,3.338,19.436,20.7,20.7,0,1,0,32.534,0,20.7,20.7,0,0,0,0-25.593Z" transform="translate(-138.236 -300.116)"/><path class="d" d="M138.1,567.658a20.6,20.6,0,0,0,4.429,12.8,20.7,20.7,0,1,0,32.534,0C177.837,576.935,138.1,565.334,138.1,567.658Z" transform="translate(-138.251 -368.361)"/></g></svg>