<svg xmlns="http://www.w3.org/2000/svg" width="11.798" height="15.77" viewBox="0 0 11.798 15.77"><defs><style>.a{fill:#418b3d;}</style></defs><g transform="translate(0.005 0.01)"><g transform="translate(-0.005 -0.01)"><g transform="translate(0)"><path class="a" d="M7.86,32H3.928A3.932,3.932,0,0,0,0,35.932v3.276a.656.656,0,1,0,1.31,0V35.932A2.627,2.627,0,0,1,3.928,33.31H7.86a2.627,2.627,0,0,1,2.622,2.622v3.276a.656.656,0,1,0,1.31,0V35.932A3.932,3.932,0,0,0,7.86,32Z" transform="translate(0.005 -24.134)"/><path class="a" d="M13.946,6.546A3.278,3.278,0,1,0,10.67,3.268a3.278,3.278,0,0,0,3.276,3.278Zm0-5.244A1.966,1.966,0,1,1,11.98,3.268,1.966,1.966,0,0,1,13.946,1.3Z" transform="translate(-8.047 0.01)"/></g></g></g></svg>