<svg xmlns="http://www.w3.org/2000/svg" width="46.819" height="30.914" viewBox="0 0 46.819 30.914"><defs><style>.a{fill:none;}.a,.b{stroke:#8abb2a;stroke-miterlimit:10;stroke-width:2.5px;}.b{fill:#fff;}</style></defs><g transform="translate(-2.004 32.835) rotate(-90)"><path class="a" d="M24.364,9.12A3.239,3.239,0,0,1,23.2,7.388a.642.642,0,0,0-.627-.568H12.183a.642.642,0,0,0-.627.568A3.239,3.239,0,0,1,10.392,9.12C8.75,10.674.271,18.709,4.361,30.777c0,0,3.1,9.051,7.971,15.772,0,0,2.03,2.688,5.045,2.449,3.015.239,5.045-2.449,5.045-2.449,4.866-6.721,7.971-15.772,7.971-15.772C34.484,18.709,26.006,10.674,24.364,9.12Z" transform="translate(0 -1.445)"/><path class="b" d="M21.871,6.958c4.155,0,7.523-.829,7.523-1.852s-3.368-1.852-7.523-1.852-7.523.829-7.523,1.852S17.716,6.958,21.871,6.958Z" transform="translate(-4.495 0)"/></g></svg>